<svg width="64" height="64" viewBox="0 0 64 64" fill="none" xmlns="http://www.w3.org/2000/svg">
<path d="M14 29C14 27.3431 15.3431 26 17 26L25 26C26.6569 26 28 27.3431 28 29L28 57C28 57.5523 27.5523 58 27 58H15C14.4477 58 14 57.5523 14 57L14 29Z" stroke="#444444" stroke-width="2"/>
<rect x="32" y="32" width="18" height="26" rx="3" stroke="#444444" stroke-width="2"/>
<path d="M39 11.4728C39 10.1071 40.1071 9 41.4728 9C44.2041 9 46.4183 11.2142 46.4183 13.9455V25.073H39V11.4728Z" fill="#FF0101" fill-opacity="0.56"/>
<path d="M36 9C36 7.34315 37.3431 6 39 6C42.866 6 46 9.13401 46 13V26H36V9Z" stroke="#444444" stroke-width="2"/>
<path d="M35 26.7822C35 26.2299 35.4477 25.7822 36 25.7822H46C46.5523 25.7822 47 26.2299 47 26.7822V31.7822H35V26.7822Z" stroke="#444444" stroke-width="2"/>
</svg>
