<svg width="64" height="64" viewBox="0 0 64 64" fill="none" xmlns="http://www.w3.org/2000/svg">
<path d="M16.2832 46.1357C16.2188 44.9889 17.1314 44.0236 18.28 44.0236H54.1646L53.4844 56.1357C53.4249 57.195 52.5485 58.0236 51.4875 58.0236H16.9508L16.2832 46.1357Z" fill="#5BCA28" fill-opacity="0.4"/>
<mask id="mask0_9751_87677" style="mask-type:alpha" maskUnits="userSpaceOnUse" x="5" y="8" width="54" height="51">
<path d="M13 8L16.5 14.5L24 26L31 21.5L25 10H39L32 21.5L40 26L49 11H59V59H5V8H13Z" fill="black"/>
</mask>
<g mask="url(#mask0_9751_87677)">
<path d="M8.31723 16.2228C8.18767 14.483 9.56432 13 11.3089 13H52.6911C54.4357 13 55.8123 14.483 55.6828 16.2228L52.7785 55.2228C52.6619 56.7889 51.3572 58 49.7868 58H14.2132C12.6428 58 11.3381 56.7889 11.2215 55.2228L8.31723 16.2228Z" stroke="#444444" stroke-width="2"/>
</g>
<mask id="mask1_9751_87677" style="mask-type:alpha" maskUnits="userSpaceOnUse" x="16" y="4" width="33" height="18">
<path d="M20 4H30.5H43.5L48.5 10L41.5 6.5L32 21.5L22.5 6.5L16 9.5L20 4Z" fill="black"/>
</mask>
<g mask="url(#mask1_9751_87677)">
<path d="M20.1001 9C20.1001 7.34315 21.4432 6 23.1001 6H41.1001C42.757 6 44.1001 7.34315 44.1001 9V15.3294C44.1001 20.3 40.0707 24.3294 35.1001 24.3294H29.1001C24.1295 24.3294 20.1001 20.3 20.1001 15.3294V9Z" stroke="#444444" stroke-width="2"/>
</g>
<path d="M21.7714 6.36602C22.2497 6.08988 22.8612 6.25376 23.1374 6.73205L31.3021 20.8737C31.5782 21.352 31.4144 21.9636 30.9361 22.2398L24.4969 25.9574C24.0186 26.2336 23.407 26.0697 23.1309 25.5914L14.9662 11.4497C14.69 10.9714 14.8539 10.3598 15.3322 10.0837L21.7714 6.36602Z" stroke="#444444" stroke-width="2"/>
<path d="M42.1608 6.36602C41.6825 6.08988 41.0709 6.25376 40.7947 6.73205L32.63 20.8737C32.3539 21.352 32.5178 21.9636 32.9961 22.2398L39.4352 25.9574C39.9135 26.2336 40.5251 26.0697 40.8012 25.5914L48.9659 11.4497C49.2421 10.9714 49.0782 10.3598 48.5999 10.0837L42.1608 6.36602Z" stroke="#444444" stroke-width="2"/>
<path d="M31 38.153C31 38.7052 31.4477 39.153 32 39.153C32.5523 39.153 33 38.7052 33 38.153H31ZM31 22.153V38.153H33V22.153H31Z" fill="#444444"/>
</svg>
