<svg width="64" height="64" viewBox="0 0 64 64" fill="none" xmlns="http://www.w3.org/2000/svg">
<mask id="mask0_9751_87035" style="mask-type:alpha" maskUnits="userSpaceOnUse" x="43" y="5" width="17" height="14">
<path d="M43 16.0833L47.5333 19H60V5H43V16.0833Z" fill="white"/>
</mask>
<g mask="url(#mask0_9751_87035)">
<path d="M54.0915 6.72336C54.491 6.34202 54.5058 5.70902 54.1244 5.30952C53.7431 4.91003 53.1101 4.89531 52.7106 5.27664L54.0915 6.72336ZM58.3981 12.574C58.8633 12.2763 58.9991 11.6579 58.7014 11.1927C58.4037 10.7275 57.7852 10.5918 57.32 10.8895L58.3981 12.574ZM41.3985 21.0792C40.9334 21.377 40.7976 21.9954 41.0953 22.4606C41.393 22.9257 42.0115 23.0615 42.4766 22.7638L41.3985 21.0792ZM52.7106 5.27664L38.6997 18.6507L40.0806 20.0974L54.0915 6.72336L52.7106 5.27664ZM57.32 10.8895L41.3985 21.0792L42.4766 22.7638L58.3981 12.574L57.32 10.8895Z" fill="#444444"/>
</g>
<mask id="mask1_9751_87035" style="mask-type:alpha" maskUnits="userSpaceOnUse" x="10" y="8" width="44" height="22">
<path d="M54 30H10V8H54V30Z" fill="white"/>
</mask>
<g mask="url(#mask1_9751_87035)">
<path d="M52 30.375C52 39.8497 43.1753 47.75 32 47.75C20.8247 47.75 12 39.8497 12 30.375C12 20.9003 20.8247 13 32 13C43.1753 13 52 20.9003 52 30.375Z" stroke="#444444" stroke-width="2"/>
<path d="M48.063 35.6251C48.063 45.2921 40.8031 53.0001 32.0005 53.0001C23.1979 53.0001 15.938 45.2921 15.938 35.6251C15.938 25.958 23.1979 18.2501 32.0005 18.2501C40.8031 18.2501 48.063 25.958 48.063 35.6251Z" stroke="#444444" stroke-width="2"/>
<path d="M42 34.5001C42 40.6589 37.4427 45.5001 32 45.5001C26.5573 45.5001 22 40.6589 22 34.5001C22 28.3412 26.5573 23.5001 32 23.5001C37.4427 23.5001 42 28.3412 42 34.5001Z" stroke="#444444" stroke-width="2"/>
</g>
<path d="M13 38C13 36.8954 13.8954 36 15 36H58C58 45.9411 49.9411 54 40 54H27C19.268 54 13 47.732 13 40V38Z" fill="#FF5C00" fill-opacity="0.5"/>
<path d="M6 32C6 31.4477 6.44772 31 7 31H57C57.5523 31 58 31.4477 58 32V38C58 46.2843 51.2843 53 43 53H21C12.7157 53 6 46.2843 6 38V32Z" stroke="#444444" stroke-width="2"/>
<path d="M24.125 58C21.3363 58 19.0679 55.7727 19.0015 53H44.9985C44.9321 55.7727 42.6637 58 39.875 58H24.125Z" stroke="#444444" stroke-width="2"/>
</svg>
