<svg width="64" height="64" viewBox="0 0 64 64" fill="none" xmlns="http://www.w3.org/2000/svg">
<path d="M13 21H33V16C33 10.4772 28.5228 6 23 6C17.4772 6 13 10.4772 13 16V21Z" stroke="#444444" stroke-width="2"/>
<mask id="mask0_9751_87061" style="mask-type:alpha" maskUnits="userSpaceOnUse" x="5" y="4" width="37" height="53">
<path d="M41.8182 28.5455H24.6364V56.7727H5V4H41.8182V28.5455Z" fill="white"/>
</mask>
<g mask="url(#mask0_9751_87061)">
<path d="M6.89159 23.9167C6.93669 22.2929 8.26602 21 9.89043 21H36.1096C37.734 21 39.0633 22.2929 39.1084 23.9167L39.8862 51.9167C39.9331 53.6055 38.5768 55 36.8873 55H9.11265C7.42317 55 6.0669 53.6055 6.11381 51.9167L6.89159 23.9167Z" stroke="#444444" stroke-width="2"/>
</g>
<mask id="mask1_9751_87061" style="mask-type:alpha" maskUnits="userSpaceOnUse" x="29" y="34" width="28" height="24">
<path d="M29 57.5V34.5H36V41.5L41 39.5L46 41.5V34.5H57V57.5H29Z" fill="black"/>
</mask>
<g mask="url(#mask1_9751_87061)">
<path d="M30.0464 37.1945C30.0464 36.09 30.9418 35.1945 32.0464 35.1945H60.0567V56.1395C60.0567 58.3487 58.2658 60.1396 56.0567 60.1396H30.0464V37.1945Z" fill="#E0A72F" fill-opacity="0.67"/>
</g>
<path d="M27 28H55C56.6569 28 58 29.3431 58 31V55C58 56.6569 56.6569 58 55 58H27C25.3431 58 24 56.6569 24 55V31C24 29.3431 25.3431 28 27 28Z" stroke="#444444" stroke-width="2"/>
<path d="M36 29.0909C36 28.5386 36.4477 28.0909 37 28.0909H45C45.5523 28.0909 46 28.5386 46 29.0909V40.7424C46 41.5968 44.9979 42.0577 44.3492 41.5017L42.9524 40.3044C41.8289 39.3414 40.1711 39.3414 39.0476 40.3044L37.6508 41.5017C37.0021 42.0577 36 41.5968 36 40.7424V29.0909Z" stroke="#444444" stroke-width="2"/>
</svg>
