<svg width="64" height="64" viewBox="0 0 64 64" fill="none" xmlns="http://www.w3.org/2000/svg">
<path d="M23 21C23 19.3431 24.3431 18 26 18L38 18C39.6569 18 41 19.3431 41 21V23C41 23.5523 40.5523 24 40 24L24 24C23.4477 24 23 23.5523 23 23V21Z" stroke="#444444" stroke-width="2"/>
<path d="M26 9C26 7.34315 27.3431 6 29 6L41 6C42.6569 6 44 7.34315 44 9V11C44 11.5523 43.5523 12 43 12L27 12C26.4477 12 26 11.5523 26 11V9Z" stroke="#444444" stroke-width="2"/>
<path d="M35 12L35 18L30 18L30 12L35 12Z" stroke="#444444" stroke-width="2"/>
<path d="M21.3638 31.5455C21.3638 30.4409 22.2592 29.5455 23.3638 29.5455H48.3638V51C48.3638 55.4183 44.782 59 40.3638 59H29.3638C24.9455 59 21.3638 55.4183 21.3638 51V31.5455Z" fill="#FFC700" fill-opacity="0.4"/>
<path d="M16 27C16 25.3431 17.3431 24 19 24H45C46.6569 24 48 25.3431 48 27V51C48 54.866 44.866 58 41 58H23C19.134 58 16 54.866 16 51V27Z" stroke="#444444" stroke-width="2"/>
</svg>
