<svg width="64" height="64" viewBox="0 0 64 64" fill="none" xmlns="http://www.w3.org/2000/svg">
<mask id="mask0_9759_12263" style="mask-type:alpha" maskUnits="userSpaceOnUse" x="20" y="39" width="18" height="20">
<path d="M32.5 39L20 42L23 59H37.5L32.5 39Z" fill="black"/>
</mask>
<g mask="url(#mask0_9759_12263)">
<path d="M22.0124 41.1536L30.2997 39.4962C30.8284 39.3904 31.3458 39.7229 31.4693 40.2477L35.3571 56.771C35.5048 57.3987 35.0285 58 34.3837 58H26.1727C25.7196 58 25.3232 57.6954 25.2065 57.2577L21.2423 42.3919C21.0936 41.8342 21.4465 41.2668 22.0124 41.1536Z" stroke="#444444" stroke-width="2"/>
</g>
<mask id="mask1_9759_12263" style="mask-type:alpha" maskUnits="userSpaceOnUse" x="11" y="17" width="37" height="25">
<path d="M23.5 21L20 19L21.5 18L28.5 17.5L47.5 22V35.5L24 41.5H18.5L11 38.5L13.5 28.5L18 32H22L26 28.5V24.5L23.5 21Z" fill="black"/>
</mask>
<g mask="url(#mask1_9759_12263)">
<path d="M14.8184 29.0455C14.8184 22.3202 20.9712 17.2763 27.5658 18.5956L46.8184 22.447V35.644L27.5658 39.4954C20.9712 40.8146 14.8184 35.7707 14.8184 29.0455V29.0455Z" fill="#222222" fill-opacity="0.4"/>
</g>
<path d="M47.7271 35.1156V16.6117L56.4853 11.3567C57.1518 10.9568 57.9998 11.4369 57.9998 12.2142V39.5131C57.9998 40.2904 57.1518 40.7705 56.4853 40.3706L47.7271 35.1156Z" stroke="#444444" stroke-width="2"/>
<path d="M24.5593 10.807L48 16.5326V35.4674L24.5593 41.193C15.1119 43.5007 6 36.3465 6 26.6214V25.3786C6 15.6535 15.1119 8.49934 24.5593 10.807Z" stroke="#444444" stroke-width="2"/>
<circle cx="19.7274" cy="25.8636" r="6.36364" stroke="#444444" stroke-width="2"/>
</svg>
