<?xml version="1.0" encoding="utf-8"?>
<!-- Generator: Adobe Illustrator 26.5.1, SVG Export Plug-In . SVG Version: 6.00 Build 0)  -->
<svg version="1.1" id="레이어_1" xmlns="http://www.w3.org/2000/svg" xmlns:xlink="http://www.w3.org/1999/xlink" x="0px"
	 y="0px" width="32px" height="32px" viewBox="0 0 32 32" style="enable-background:new 0 0 32 32;" xml:space="preserve">
<style type="text/css">
	.st0{fill:#FFFFFF;}
</style>
<path class="st0" d="M16,4.7c-6,0-11,4.8-11.3,10.8h0l0,0.3v1v0.3h0.1c0.6,5.7,5.4,10.2,11.2,10.2c6.2,0,11.3-5.1,11.3-11.3
	S22.2,4.7,16,4.7z M16.5,15.5V7.2c1.2,1,3.6,3.8,3.8,8.3H16.5z M25.6,17.1c-0.5,4.2-3.7,7.7-7.8,8.4c1.9-1.7,3.8-4.5,4.1-8.4H25.6z
	 M16.5,24.5v-7.4h3.7C19.9,21.3,17.6,23.6,16.5,24.5z M25.7,15.5h-3.8c-0.2-4.5-2.4-7.5-3.7-8.9C22.3,7.5,25.4,11.2,25.7,15.5z
	 M14.9,17.1V24c-1.1-1.1-2.9-3.3-3.2-6.9H14.9z M10.1,17.1c0.3,3.9,2.2,6.8,4.1,8.4c-4.1-0.8-7.4-4.2-7.8-8.4H10.1z M13.8,6.6
	c-1.4,1.4-3.6,4.4-3.7,8.9H6.3C6.6,11.2,9.7,7.5,13.8,6.6z M14.9,7.7v7.8h-3.2C11.9,11.5,13.7,9,14.9,7.7z"/>
</svg>
