<svg width="64" height="64" viewBox="0 0 64 64" fill="none" xmlns="http://www.w3.org/2000/svg">
<path d="M26 40C26 38.8954 26.8954 38 28 38H44V59H26V40Z" fill="#1A75FF" fill-opacity="0.4"/>
<mask id="mask0_9751_86994" style="mask-type:alpha" maskUnits="userSpaceOnUse" x="9" y="28" width="46" height="32">
<path d="M13.4337 28L9 30.5V60H55V30.5L51.1205 28H13.4337Z" fill="black"/>
</mask>
<g mask="url(#mask0_9751_86994)">
<rect x="11" y="21" width="42" height="37" rx="3" stroke="#444444" stroke-width="2"/>
</g>
<path d="M21 34C21 33.4477 21.4477 33 22 33H42C42.5523 33 43 33.4477 43 34V58H21V34Z" stroke="#444444" stroke-width="2"/>
<mask id="mask1_9751_86994" style="mask-type:alpha" maskUnits="userSpaceOnUse" x="10" y="5" width="16" height="16">
<path d="M10 20.5L26 10V5H10V20.5Z" fill="black"/>
</mask>
<g mask="url(#mask1_9751_86994)">
<rect x="13" y="6" width="10" height="17" rx="3" stroke="#444444" stroke-width="2"/>
</g>
<path d="M29.6472 6.76506C31.0498 5.74498 32.95 5.74498 34.3526 6.76506L56.3526 22.7651C58.1392 24.0644 58.5342 26.5661 57.2348 28.3527C55.9355 30.1393 53.4338 30.5343 51.6472 29.2349L33.7644 16.2293C32.7124 15.4642 31.2873 15.4642 30.2353 16.2293L12.3526 29.2349C10.5659 30.5343 8.06427 30.1393 6.76492 28.3527C5.46557 26.5661 5.86057 24.0644 7.64718 22.7651L29.6472 6.76506Z" stroke="#444444" stroke-width="2"/>
</svg>
