<svg width="64" height="64" viewBox="0 0 64 64" fill="none" xmlns="http://www.w3.org/2000/svg">
<mask id="mask0_9759_87036" style="mask-type:alpha" maskUnits="userSpaceOnUse" x="11" y="16" width="50" height="46">
<path d="M42 22L37.5 16.5H60.5V61.5H11V38H17.5L24 42L30 38L36.5 36.5L37.5 29.5L42 25V22Z" fill="black"/>
</mask>
<g mask="url(#mask0_9759_87036)">
<path d="M57.9998 28.2683V51.5286C57.9998 52.8526 57.1319 54.0201 55.864 54.4015L38.264 59.6958C37.7003 59.8653 37.0993 59.8653 36.5356 59.6958L18.9356 54.4015C17.6677 54.0201 16.7998 52.8526 16.7998 51.5286V28.2683C16.7998 26.9332 17.6821 25.7588 18.9643 25.387L36.5643 20.2835C37.1101 20.1252 37.6895 20.1252 38.2353 20.2835L55.8353 25.387C57.1176 25.7588 57.9998 26.9332 57.9998 28.2683Z" stroke="#444444" stroke-width="2"/>
<path d="M37.3999 58.6V32.2L57.1999 26.8" stroke="#444444" stroke-width="2" stroke-linecap="round"/>
<path d="M48.2002 40.6L48.2002 29.8" stroke="#444444" stroke-width="2" stroke-linecap="round"/>
</g>
<mask id="mask1_9759_87036" style="mask-type:alpha" maskUnits="userSpaceOnUse" x="3" y="3" width="40" height="40">
<path d="M20.4055 4.21099C21.9006 2.93694 24.0994 2.93694 25.5945 4.21099L28.4436 6.63896C29.0842 7.18492 29.8808 7.51487 30.7198 7.58183L34.4513 7.8796C36.4093 8.03585 37.9642 9.59069 38.1204 11.5487L38.4182 15.2802C38.4851 16.1192 38.8151 16.9158 39.361 17.5564L41.789 20.4055C43.0631 21.9006 43.0631 24.0994 41.789 25.5945L39.361 28.4435C38.8151 29.0842 38.4851 29.8808 38.4182 30.7198L38.1204 34.4513C37.9642 36.4093 36.4093 37.9642 34.4513 38.1204L30.7198 38.4182C29.8808 38.4851 29.0842 38.8151 28.4436 39.361L25.5945 41.789C24.0994 43.0631 21.9006 43.0631 20.4055 41.789L17.5564 39.361C16.9158 38.8151 16.1192 38.4851 15.2802 38.4182L11.5487 38.1204C9.59069 37.9642 8.03585 36.4093 7.8796 34.4513L7.58183 30.7198C7.51487 29.8808 7.18492 29.0842 6.63896 28.4436L4.21099 25.5945C2.93694 24.0994 2.93694 21.9006 4.21099 20.4055L6.63896 17.5564C7.18492 16.9158 7.51487 16.1192 7.58183 15.2802L7.8796 11.5487C8.03585 9.59069 9.59069 8.03585 11.5487 7.8796L15.2802 7.58183C16.1192 7.51487 16.9158 7.18492 17.5564 6.63896L20.4055 4.21099Z" fill="#444444"/>
</mask>
<g mask="url(#mask1_9759_87036)">
<path d="M23.968 10.7735C25.4631 9.49944 27.6619 9.49944 29.157 10.7735L31.0876 12.4188C31.7283 12.9647 32.5248 13.2947 33.3639 13.3616L35.8924 13.5634C37.8505 13.7197 39.4053 15.2745 39.5616 17.2326L39.7634 19.7611C39.8303 20.6002 40.1603 21.3967 40.7062 22.0374L42.3515 23.968C43.6256 25.4631 43.6256 27.6619 42.3515 29.157L40.7062 31.0876C40.1603 31.7283 39.8303 32.5248 39.7634 33.3639L39.5616 35.8924C39.4053 37.8505 37.8505 39.4053 35.8924 39.5616L33.3639 39.7634C32.5248 39.8303 31.7283 40.1603 31.0876 40.7062L29.157 42.3515C27.6619 43.6256 25.4631 43.6256 23.968 42.3515L22.0374 40.7062C21.3967 40.1603 20.6002 39.8303 19.7611 39.7634L17.2326 39.5616C15.2745 39.4053 13.7197 37.8505 13.5634 35.8924L13.3616 33.3639C13.2947 32.5248 12.9647 31.7283 12.4188 31.0876L10.7735 29.157C9.49944 27.6619 9.49944 25.4631 10.7735 23.968L12.4188 22.0374C12.9647 21.3967 13.2947 20.6002 13.3616 19.7611L13.5634 17.2326C13.7197 15.2745 15.2745 13.7197 17.2326 13.5634L19.7611 13.3616C20.6002 13.2947 21.3967 12.9647 22.0374 12.4188L23.968 10.7735Z" fill="#28A8BA" fill-opacity="0.4"/>
</g>
<path d="M24.9459 4.97211L27.7949 7.40008C28.5958 8.08253 29.5914 8.49496 30.6403 8.57866L34.3717 8.87643C35.8403 8.99362 37.0064 10.1597 37.1236 11.6283L37.4213 15.3597C37.505 16.4085 37.9175 17.4042 38.5999 18.2051L41.0279 21.0541C41.9834 22.1754 41.9834 23.8246 41.0279 24.9459L38.5999 27.7949C37.9175 28.5958 37.505 29.5914 37.4213 30.6403L37.1236 34.3717C37.0064 35.8403 35.8403 37.0064 34.3717 37.1236L30.6403 37.4213C29.5915 37.505 28.5958 37.9175 27.7949 38.5999L24.9459 41.0279C23.8246 41.9834 22.1754 41.9834 21.0541 41.0279L18.2051 38.5999C17.4042 37.9175 16.4085 37.505 15.3597 37.4213L11.6283 37.1236C10.1597 37.0064 8.99362 35.8403 8.87643 34.3717L8.57866 30.6403C8.49496 29.5914 8.08253 28.5958 7.40008 27.7949L4.97211 24.9459C4.01656 23.8246 4.01656 22.1754 4.97211 21.0541L7.40008 18.2051C8.08253 17.4042 8.49496 16.4085 8.57866 15.3597L8.87643 11.6283C8.99362 10.1597 10.1597 8.99362 11.6283 8.87643L15.3597 8.57866C16.4085 8.49496 17.4042 8.08253 18.2051 7.40008L21.0541 4.97211C22.1754 4.01656 23.8246 4.01656 24.9459 4.97211Z" stroke="#444444" stroke-width="2"/>
<path d="M16.5498 22.9083L22.0119 28.775L30.9498 19.175" stroke="#444444" stroke-width="2" stroke-linecap="round" stroke-linejoin="round"/>
</svg>
